<svg xmlns="http://www.w3.org/2000/svg" viewBox="0 0 437 183"><polyline fill="none" stroke="#f44336" stroke-opacity="1.0" points="121,55 133,51 151,46 161,40 174,36 186,32 199,28 213,24 230,21 250,17 266,14 287,12 307,10" stroke-linecap="round" stroke-width="1.0" /><polyline fill="none" stroke="#f44336" stroke-opacity="1.0" points="13,70 20,65 25,60 30,54 33,48 36,42 41,36 46,29 50,23 53,17 56,9 55,3 48,1 42,4 35,10 28,19 24,24 20,29 17,35 13,42 10,49 8,55 5,61 3,67 2,77 1,85 3,93 8,99 14,102 23,104 34,103 45,102 56,98 67,93 75,88 82,83 87,78 91,73 96,79 97,85 103,89 109,84 112,78 113,85 114,93 118,99 124,101 132,99 138,94 144,87 150,78 154,68 157,60 160,50 163,40 165,32 167,25 169,18 169,27 169,35 168,45 168,52 168,64 169,77 170,88 173,97 176,105 182,110 190,107 195,100 200,90 204,79 207,68 209,61 210,53 212,47 213,54 212,61 211,68 215,73 222,77 229,79 235,81 242,82 248,85 256,89 264,93 272,96 280,97 289,95 296,92 303,87 308,83 309,91 309,98 307,105 306,112 305,118 303,126 302,134 301,142 300,149 301,157 302,163 303,170 305,176 309,181 315,179 319,170 320,162 322,152 323,142 324,131 325,121 326,112 328,103 329,96 331,89 337,91 340,97 347,97 352,91 356,85 363,84 369,81 373,73 374,66 373,60 374,68 380,71 388,71 395,71 390,75 383,77 378,80 384,74 389,68 393,62 396,56 390,59 390,67 393,75 399,84 406,91 415,97 422,100 430,102" stroke-linecap="round" stroke-width="1.0" /></svg>
