<svg preserveAspectRatio="xMidYMid meet" data-bbox="5.5 13 511.2 104" viewBox="5.5 13 511.2 104" xmlns="http://www.w3.org/2000/svg" data-type="color" role="presentation" aria-hidden="true">
    <g>
        <path d="M511.1 117H11c-3 0-5.5-2.5-5.5-5.5v-93c0-3 2.5-5.5 5.5-5.5h500.2c3 0 5.5 2.5 5.5 5.5v93c-.1 3-2.6 5.5-5.6 5.5z" fill="%234d4d4d" data-color="1"></path>
        <path d="M36.5 71.9v20.7H24.3V56.4c0-3.5.3-6.4 1-8.8.7-2.4 1.8-4.4 3.4-5.9 1.6-1.5 3.8-2.6 6.5-3.2 2.7-.7 6.1-1 10.1-1h37.8V48H45.6c-3.4 0-5.8.7-7.1 2.1-1.3 1.4-2 3.7-2 7v4.4H83v10.4H36.5z" fill="%23ffffff" data-color="2"></path>
        <path d="M94.2 92.6V37.4h12.3v55.2H94.2z" fill="%23ffffff" data-color="2"></path>
        <path d="M117.6 92.6V37.4h43.7c4.1 0 7.5.3 10.2 1 2.7.7 4.9 1.8 6.5 3.2 1.6 1.5 2.8 3.4 3.4 5.9.7 2.4 1 5.4 1 8.8v17.3c0 3.5-.3 6.5-1 8.9-.7 2.4-1.8 4.3-3.4 5.8-1.6 1.5-3.8 2.6-6.5 3.2-2.7.7-6.1 1-10.2 1h-43.7zm52.6-35.7c0-1.7-.1-3.1-.4-4.2-.3-1.2-.8-2.1-1.5-2.7-.7-.7-1.7-1.2-2.9-1.5-1.2-.3-2.7-.4-4.5-.4H130v34.1h30.9c1.7 0 3.1-.1 4.3-.4 1.2-.3 2.2-.7 2.9-1.4.8-.7 1.3-1.6 1.7-2.7.4-1.1.5-2.6.5-4.3V56.9z" fill="%23ffffff" data-color="2"></path>
        <path d="m241.5 53-16.9 35.6c-.8 1.6-1.8 2.8-3 3.8-1.3 1-2.9 1.5-4.8 1.5-2 0-3.6-.5-4.7-1.5s-2-2.2-2.7-3.8L188 37.4h13.7l16.2 39.9 16.4-36.2c.8-1.8 1.8-3.1 2.8-3.8 1.1-.7 2.6-1.1 4.6-1.1 2 0 3.6.4 4.7 1.1 1.1.7 2.1 2 2.8 3.8L265 77.3l16.7-39.9h13.4c-.6 1.4-1.6 3.5-2.7 6.1-1.2 2.7-2.5 5.7-4 9s-3 6.8-4.6 10.4c-1.6 3.6-3.2 7.1-4.7 10.4-1.5 3.3-2.8 6.3-4 9-1.2 2.7-2 4.7-2.6 6.1-.7 1.6-1.6 2.8-2.8 3.8-1.2 1-2.7 1.5-4.4 1.5-1.9 0-3.5-.5-4.8-1.4-1.2-.9-2.2-2.2-3-3.8l-16-35.5z" fill="%23ff8300" data-color="3"></path>
        <path d="M318.6 92.6c-4 0-7.4-.3-10.1-1-2.7-.7-4.9-1.8-6.5-3.2-1.6-1.5-2.8-3.4-3.4-5.8-.7-2.4-1-5.4-1-8.9V56.4c0-3.5.3-6.4 1-8.8.7-2.4 1.8-4.4 3.4-5.9s3.8-2.6 6.5-3.2c2.7-.7 6.1-1 10.1-1h20.9c4.1 0 7.5.3 10.2 1 2.7.7 4.9 1.8 6.5 3.2 1.6 1.5 2.8 3.4 3.4 5.9.7 2.4 1 5.4 1 8.8v17.3c0 3.5-.3 6.5-1 8.9-.7 2.4-1.8 4.3-3.4 5.8-1.6 1.5-3.8 2.6-6.5 3.2-2.7.7-6.1 1-10.2 1h-20.9zm29.8-35.7c0-1.7-.1-3.2-.4-4.3-.3-1.1-.8-2-1.5-2.7-.7-.7-1.7-1.2-2.9-1.5-1.2-.3-2.7-.4-4.5-.4h-19.9c-1.9 0-3.5.1-4.7.4-1.2.3-2.2.8-2.9 1.5-.7.7-1.2 1.6-1.4 2.7-.2 1.1-.4 2.6-.4 4.3v16.3c0 1.8.1 3.3.4 4.4.2 1.2.7 2.1 1.4 2.8.7.7 1.7 1.1 2.9 1.4 1.2.2 2.8.4 4.7.4h19.9c1.8 0 3.3-.1 4.5-.4 1.2-.2 2.2-.7 2.9-1.4.7-.7 1.2-1.6 1.5-2.8.3-1.2.4-2.6.4-4.4V56.9z" fill="%23ff8300" data-color="3"></path>
        <path d="m414.2 92.6-32.3-20.1v20.1h-12.2V37.4h43.2c3.9 0 7.2.2 10 .7 2.7.5 5 1.4 6.8 2.6 1.8 1.2 3 2.9 3.8 5.1.8 2.2 1.2 4.9 1.2 8.2v3.8c0 3.2-.4 5.8-1.3 7.9-.9 2.1-2.2 3.7-4 4.9-1.8 1.2-4.1 2.1-6.8 2.5-2.7.5-6 .7-9.8.7H403l32.4 18.7h-21.2zm8.2-37.9c0-1.5-.2-2.6-.5-3.6-.3-.9-.9-1.6-1.6-2.1-.8-.5-1.8-.8-3.2-1-1.3-.2-3-.2-5-.2h-30.2v16.8h30.2c2 0 3.7-.1 5-.2 1.3-.2 2.4-.5 3.2-1 .8-.5 1.3-1.2 1.7-2.1.3-.9.5-2.1.5-3.6v-3z" fill="%23ff8300" data-color="3"></path>
        <path d="m486.2 92.6-30.7-26.9v26.9h-12.2V37.4h12.2v26.4l30.1-26.4h16.6l-31.5 26.8L503 92.6h-16.8z" fill="%23ff8300" data-color="3"></path>
    </g>
</svg>